<svg width="25" height="26" viewBox="0 0 25 26" fill="none" xmlns="http://www.w3.org/2000/svg">
<path d="M24.9235 11.5689C24.8597 10.9184 24.3112 10.4337 23.6607 10.4337H14.0306C13.3291 10.4337 12.7551 11.0077 12.7551 11.7092V13.8903C12.7551 14.5919 13.3291 15.1658 14.0306 15.1658H19.7832C19.6429 16.3393 18.8775 18.1123 17.1811 19.2985C16.0969 20.051 14.6556 20.574 12.7551 20.574C12.6658 20.574 12.5893 20.574 12.5 20.5613C9.24746 20.4592 6.49235 18.2781 5.49746 15.2806C5.2296 14.4771 5.07654 13.6352 5.07654 12.7551C5.07654 11.875 5.2296 11.0204 5.4847 10.2296C5.56123 10 5.65052 9.77043 5.75256 9.54084C6.92603 6.90053 9.48981 5.03827 12.5 4.94899C12.5765 4.93623 12.6658 4.93623 12.7551 4.93623C14.5791 4.93623 15.9439 5.53571 16.9005 6.19897C17.398 6.54336 18.0612 6.46683 18.4949 6.04591L20.2679 4.31123C20.8291 3.76276 20.7781 2.83162 20.1403 2.37244C18.1122 0.88009 15.6377 0 12.7551 0C12.6658 0 12.5893 1.27606e-05 12.5 0.0127679C7.61481 0.102054 3.41837 2.93369 1.3648 7.02808C0.49745 8.76278 0 10.7015 0 12.7551C0 14.8087 0.49745 16.7475 1.3648 18.4822H1.37755C3.43113 22.5766 7.62756 25.4082 12.5 25.4975C12.5893 25.5102 12.6658 25.5102 12.7551 25.5102C16.199 25.5102 19.0944 24.375 21.199 22.4235C23.6097 20.1914 25 16.926 25 13.0357C25 12.4873 24.9745 12.0153 24.9235 11.5689Z" fill="#F9F4E8"/>
</svg>
