<svg width="29" height="29" viewBox="0 0 29 29" fill="none" xmlns="http://www.w3.org/2000/svg">
<path d="M14.5 9.0625C15.501 9.0625 16.3125 8.25102 16.3125 7.25C16.3125 6.24898 15.501 5.4375 14.5 5.4375C13.499 5.4375 12.6875 6.24898 12.6875 7.25C12.6875 8.25102 13.499 9.0625 14.5 9.0625Z" fill="#F9F4E8"/>
<path d="M14.5 16.3125C15.501 16.3125 16.3125 15.501 16.3125 14.5C16.3125 13.499 15.501 12.6875 14.5 12.6875C13.499 12.6875 12.6875 13.499 12.6875 14.5C12.6875 15.501 13.499 16.3125 14.5 16.3125Z" fill="#F9F4E8"/>
<path d="M14.5 23.5625C15.501 23.5625 16.3125 22.751 16.3125 21.75C16.3125 20.749 15.501 19.9375 14.5 19.9375C13.499 19.9375 12.6875 20.749 12.6875 21.75C12.6875 22.751 13.499 23.5625 14.5 23.5625Z" fill="#F9F4E8"/>
</svg>
