<?xml version="1.0" standalone="no"?>
<!DOCTYPE svg PUBLIC "-//W3C//DTD SVG 20010904//EN"
 "http://www.w3.org/TR/2001/REC-SVG-20010904/DTD/svg10.dtd">
<svg version="1.0" xmlns="http://www.w3.org/2000/svg"
 width="125.000000pt" height="121.000000pt" viewBox="0 0 125.000000 121.000000"
 preserveAspectRatio="xMidYMid meet">

<g transform="translate(0.000000,121.000000) scale(0.100000,-0.100000)"
fill="#000000" stroke="none">
<path d="M623 1148 c-88 -74 -173 -152 -173 -159 0 -9 185 -120 212 -127 17
-4 211 98 223 117 11 19 -183 201 -215 201 -4 0 -26 -15 -47 -32z"/>
<path d="M373 883 c-49 -63 -165 -234 -162 -237 10 -8 173 -35 181 -30 16 10
188 207 188 216 0 8 -153 88 -169 88 -5 0 -22 -17 -38 -37z"/>
<path d="M808 877 l-77 -42 96 -114 97 -113 46 6 c25 4 68 12 97 19 l52 12
-96 138 c-72 104 -101 137 -117 137 -11 0 -56 -19 -98 -43z"/>
<path d="M546 689 c-58 -61 -106 -113 -106 -117 1 -14 223 -163 235 -158 7 2
61 39 120 82 l107 77 -49 51 c-138 146 -169 176 -184 176 -9 0 -65 -50 -123
-111z"/>
<path d="M605 287 c-30 -41 -55 -77 -55 -82 0 -11 102 -135 111 -135 9 0 119
122 119 133 0 8 -110 157 -116 157 -2 0 -28 -33 -59 -73z"/>
</g>
</svg>
