<svg width="24" height="24" viewBox="0 0 24 24" fill="none" xmlns="http://www.w3.org/2000/svg">
<path d="M6.50008 6.99991C7.96143 5.53856 9.59363 4.4189 10.6976 3.74078C11.5022 3.24656 12.498 3.24656 13.3026 3.74078C14.4065 4.4189 16.0387 5.53856 17.5001 6.99991C20.6685 10.1683 20.5001 11.9999 20.5001 14.9999C20.5001 16.4097 20.3897 17.5987 20.2726 18.4631C20.1494 19.3725 19.3563 19.9999 18.4385 19.9999H17.0001C15.8955 19.9999 15.0001 19.1045 15.0001 17.9999V15.9999C15.0001 15.2043 14.684 14.4412 14.1214 13.8786C13.5588 13.316 12.7957 12.9999 12.0001 12.9999C11.2044 12.9999 10.4414 13.316 9.87877 13.8786C9.31616 14.4412 9.00009 15.2043 9.00009 15.9999V17.9999C9.00009 19.1045 8.10466 19.9999 7.00009 19.9999H5.56164C4.64391 19.9999 3.85074 19.3725 3.72757 18.4631C3.61051 17.5987 3.50009 16.4097 3.50009 14.9999C3.50009 11.9999 3.33169 10.1683 6.50008 6.99991Z" stroke="white" stroke-width="1.5" stroke-linecap="round" stroke-linejoin="round"/>
</svg>
