<svg width="21" height="22" viewBox="0 0 21 22" fill="none" xmlns="http://www.w3.org/2000/svg">
<path d="M7.43936 21.9998L7.03172 18.4798C6.81092 18.3882 6.60302 18.2782 6.40804 18.1498C6.21237 18.0215 6.02112 17.884 5.83429 17.7373L2.8025 19.1123L0 13.8874L2.62416 11.7424C2.60717 11.6141 2.59868 11.4901 2.59868 11.3706V10.6281C2.59868 10.5093 2.60717 10.3857 2.62416 10.2574L0 8.11242L2.8025 2.88747L5.83429 4.26246C6.02112 4.11579 6.21645 3.97829 6.42027 3.84996C6.62408 3.72163 6.8279 3.61163 7.03172 3.51996L7.43936 0H13.0444L13.452 3.51996C13.6728 3.61163 13.881 3.72163 14.0767 3.84996C14.2717 3.97829 14.4626 4.11579 14.6494 4.26246L17.6812 2.88747L20.4837 8.11242L17.8595 10.2574C17.8765 10.3857 17.885 10.5093 17.885 10.6281V11.3706C17.885 11.4901 17.868 11.6141 17.8341 11.7424L20.4582 13.8874L17.6557 19.1123L14.6494 17.7373C14.4626 17.884 14.2673 18.0215 14.0634 18.1498C13.8596 18.2782 13.6558 18.3882 13.452 18.4798L13.0444 21.9998H7.43936ZM10.2928 14.8499C11.2779 14.8499 12.1187 14.474 12.8151 13.7224C13.5114 12.9707 13.8596 12.0632 13.8596 10.9999C13.8596 9.93657 13.5114 9.02908 12.8151 8.27742C12.1187 7.52576 11.2779 7.14993 10.2928 7.14993C9.2907 7.14993 8.44554 7.52576 7.75731 8.27742C7.06977 9.02908 6.72599 9.93657 6.72599 10.9999C6.72599 12.0632 7.06977 12.9707 7.75731 13.7224C8.44554 14.474 9.2907 14.8499 10.2928 14.8499Z" fill="#F9F4E8"/>
</svg>
