<svg width="81" height="26" viewBox="0 0 81 26" fill="none" xmlns="http://www.w3.org/2000/svg">
<path d="M24.6024 11.4199C24.5395 10.7777 23.9981 10.2993 23.3559 10.2993H13.8499C13.1574 10.2993 12.5908 10.8659 12.5908 11.5584V13.7114C12.5908 14.4039 13.1574 14.9705 13.8499 14.9705H19.5283C19.3898 16.1288 18.6344 17.879 16.9598 19.0499C15.8896 19.7928 14.4668 20.309 12.5908 20.309C12.5027 20.309 12.4271 20.309 12.339 20.2964C9.12834 20.1957 6.40873 18.0426 5.42664 15.0838C5.16224 14.2906 5.01115 13.4596 5.01115 12.5908C5.01115 11.7221 5.16224 10.8785 5.41405 10.0978C5.4896 9.87119 5.57773 9.64458 5.67846 9.41795C6.83681 6.81165 9.36757 4.97337 12.339 4.88524C12.4145 4.87265 12.5027 4.87265 12.5908 4.87265C14.3913 4.87265 15.7385 5.4644 16.6828 6.11913C17.1739 6.45908 17.8286 6.38353 18.2567 5.96804L20.0068 4.2557C20.5608 3.71429 20.5104 2.79515 19.8809 2.34188C17.8789 0.868754 15.4363 0 12.5908 0C12.5027 0 12.4271 1.25962e-05 12.339 0.0126034C7.51672 0.100739 3.37434 2.8959 1.34722 6.93755C0.491042 8.64991 0 10.5637 0 12.5908C0 14.6179 0.491042 16.5317 1.34722 18.2441H1.35981C3.38693 22.2858 7.52931 25.0809 12.339 25.169C12.4271 25.1816 12.5027 25.1816 12.5908 25.1816C15.9903 25.1816 18.8484 24.0611 20.9259 22.1347C23.3056 19.9313 24.678 16.708 24.678 12.8678C24.678 12.3264 24.6528 11.8606 24.6024 11.4199Z" fill="#F9F4E8"/>
<path d="M67.198 16.5808L64.8597 18.9191C64.3667 19.4121 63.5831 19.4121 63.0775 18.9318C62.9385 18.7927 62.7994 18.6663 62.6604 18.5273C61.3585 17.2128 60.183 15.8351 59.1339 14.3941C58.0975 12.9532 57.2633 11.5123 56.6566 10.084C56.0625 8.64311 55.7592 7.26539 55.7592 5.95087C55.7592 5.09137 55.9108 4.26979 56.2142 3.51142C56.5175 2.7404 56.9978 2.03258 57.6677 1.4006C58.4767 0.604298 59.3615 0.212469 60.2968 0.212469C60.6507 0.212469 61.0046 0.288307 61.3206 0.439983C61.6492 0.591658 61.9399 0.819172 62.1675 1.1478L65.0999 5.28097C65.3274 5.59696 65.4917 5.88767 65.6054 6.16574C65.7192 6.43117 65.7824 6.69661 65.7824 6.93676C65.7824 7.24011 65.6939 7.54346 65.517 7.83417C65.3526 8.12489 65.1125 8.42824 64.8091 8.73159L63.8485 9.73012C63.7095 9.86916 63.6463 10.0335 63.6463 10.2357C63.6463 10.3368 63.6589 10.4253 63.6842 10.5264C63.7221 10.6275 63.76 10.7034 63.7853 10.7792C64.0128 11.1963 64.4047 11.7398 64.9608 12.3971C65.5296 13.0543 66.1363 13.7242 66.7936 14.3941C66.92 14.5205 67.059 14.6469 67.1854 14.7733C67.691 15.2663 67.7036 16.0752 67.198 16.5808Z" fill="#F9F4E8"/>
<path d="M81 20.8519C81 21.2058 80.9368 21.5723 80.8104 21.9262C80.7725 22.0274 80.7345 22.1285 80.684 22.2296C80.4691 22.6846 80.191 23.1144 79.8245 23.5188C79.2051 24.2014 78.5226 24.6943 77.7516 25.0103C77.7389 25.0103 77.7263 25.0229 77.7137 25.0229C76.9679 25.3263 76.159 25.4906 75.2869 25.4906C73.9976 25.4906 72.6199 25.1873 71.1663 24.5679C69.7128 23.9486 68.2592 23.1144 66.8183 22.0653C66.3253 21.6987 65.8324 21.3322 65.3647 20.9403L69.4979 16.8072C69.8518 17.0726 70.1678 17.2748 70.4332 17.4139C70.4964 17.4392 70.5723 17.4771 70.6607 17.515C70.7619 17.5529 70.863 17.5656 70.9767 17.5656C71.1916 17.5656 71.3559 17.4897 71.495 17.3507L72.4556 16.4027C72.7716 16.0867 73.0749 15.8466 73.3656 15.6949C73.6563 15.5179 73.9471 15.4295 74.263 15.4295C74.5032 15.4295 74.756 15.48 75.0341 15.5938C75.3121 15.7075 75.6028 15.8718 75.9188 16.0867L80.1026 19.057C80.4312 19.2845 80.6587 19.55 80.7977 19.866C80.9241 20.182 81 20.498 81 20.8519Z" fill="#F9F4E8"/>
</svg>
