<svg width="91" height="15" viewBox="0 0 91 15" fill="none" xmlns="http://www.w3.org/2000/svg">
<path d="M83.2287 11.4874L78.5491 13.7879L79.719 9.187L76.2094 5.35294L81.2788 4.96953L83.2287 0.752066L85.1785 4.96953L90.2479 5.35294L86.7383 9.187L87.9082 13.7879L83.2287 11.4874Z" stroke="#777777" stroke-width="1.5" stroke-linecap="round" stroke-linejoin="round"/>
<path d="M64.1763 11.4874L59.4968 13.7879L60.6667 9.187L57.157 5.35294L62.2265 4.96954L64.1763 0.752066L66.1261 4.96954L71.1956 5.35294L67.686 9.187L68.8558 13.7879L64.1763 11.4874Z" fill="#1E1E1E"/>
<path d="M26.0716 11.4874L21.3921 13.7879L22.562 9.187L19.0523 5.35294L24.1218 4.96954L26.0716 0.752066L28.0214 4.96954L33.0909 5.35294L29.5813 9.187L30.7511 13.7879L26.0716 11.4874Z" fill="#1E1E1E"/>
<path d="M45.124 11.4874L40.4444 13.7879L41.6143 9.187L38.1047 5.35294L43.1742 4.96954L45.124 0.752066L47.0738 4.96954L52.1433 5.35294L48.6336 9.187L49.8035 13.7879L45.124 11.4874Z" fill="#1E1E1E"/>
<path d="M7.01928 11.4874L2.33976 13.7879L3.50964 9.187L0 5.35294L5.06948 4.96954L7.01928 0.752066L8.96908 4.96954L14.0386 5.35294L10.5289 9.187L11.6988 13.7879L7.01928 11.4874Z" fill="#1E1E1E"/>
</svg>
