<svg width="30" height="29" viewBox="0 0 30 29" fill="none" xmlns="http://www.w3.org/2000/svg">
<path d="M21.5773 15.3007C19.5705 16.7306 17.7795 18.0066 16.0432 19.2425C14.3045 18.0066 12.5114 16.7306 10.5 15.3007C12.1136 13.5696 13.7636 11.7627 15.4773 10.0138C15.6659 9.82194 16.3977 9.81079 16.5795 9.99594C18.2977 11.7449 19.95 13.5562 21.575 15.2962L21.5773 15.3007Z" fill="#F9F4E8"/>
<path d="M10.6364 5.33593C12.3023 3.86139 13.9432 2.39354 15.6136 0.959159C15.7864 0.811929 16.2364 0.742775 16.4 0.856544C18.3159 2.17716 20.0045 3.7387 21.4182 5.48762C19.6932 6.49147 18.0909 7.43954 16.4659 8.35193C16.2818 8.45454 15.9295 8.45677 15.7477 8.35193C14.1273 7.42393 12.5295 6.46024 10.6364 5.33593Z" fill="#F9F4E8"/>
<path d="M17.5477 8.97236C18.8909 8.27859 20.2 7.57813 21.5409 6.93789C21.7318 6.84643 22.2 6.96243 22.3205 7.13197C23.8273 9.24005 25.2955 11.3749 26.8273 13.5834C25.2341 13.9046 23.9591 14.1767 22.675 14.3998C22.475 14.4355 22.1614 14.295 22.0182 14.1321C20.5864 12.5081 19.1795 10.864 17.5455 8.97459L17.5477 8.97236Z" fill="#F9F4E8"/>
<path d="M14.0477 9.02995C12.55 10.7432 11.2068 12.298 9.83636 13.8283C9.63863 14.0492 9.27727 14.3191 9.03409 14.2834C7.77727 14.1027 6.53409 13.8306 4.98863 13.5316C6.51136 11.3366 7.93409 9.25526 9.41363 7.21633C9.54545 7.03564 10.1295 6.98433 10.3841 7.10703C11.6295 7.7071 12.8364 8.38749 14.0455 9.03218L14.0477 9.02995Z" fill="#F9F4E8"/>
<path d="M15.8886 27.434L13.0864 24.1236C13.7205 23.2669 14.7159 21.9196 15.9023 20.3179C17.0682 21.8459 18.0659 23.1509 18.8205 24.1392C17.7477 25.346 16.8205 26.3856 15.8886 27.4363V27.434Z" fill="#F9F4E8"/>
</svg>
