<svg width="197" height="233" viewBox="0 0 197 233" fill="none" xmlns="http://www.w3.org/2000/svg">
<path d="M99.0477 72.5838C83.0695 85.7679 67.8613 102.741 53.6734 123.305C42.0099 118.63 29.9614 116.185 17.6354 116.185C14.3681 116.185 11.1188 116.346 7.88738 116.695C21.6724 90.2104 36.8986 66.8337 53.2885 47.0576C69.1592 52.2614 84.4749 60.9047 99.0477 72.593V72.5838Z" fill="#101528" stroke="#CEAC57" stroke-width="9" stroke-miterlimit="10" stroke-linecap="round"/>
<path d="M148.826 42.866C132.007 48.1594 115.635 56.8563 99.9341 68.7596C84.2514 56.8563 67.8794 48.1594 51.0599 42.866C66.4651 25.6425 82.8281 11.2315 99.9431 0C117.058 11.2315 133.421 25.6425 148.826 42.866Z" fill="#F4F0E0"/>
<path d="M192.992 116.686C189.761 116.337 186.502 116.176 183.226 116.176C170.9 116.176 158.852 118.621 147.188 123.296C133 102.75 117.783 85.768 101.805 72.575C116.378 60.8866 131.702 52.2527 147.582 47.04C163.972 66.8161 179.198 90.2107 192.992 116.677V116.686Z" fill="#101528" stroke="#CEAC57" stroke-width="8" stroke-miterlimit="10"/>
<path d="M146.32 127.873C130.028 134.788 114.498 146.055 100.006 161.057C85.5044 146.055 69.9649 134.779 53.6734 127.846C67.9956 106.879 83.5172 89.2705 99.9876 75.54C116.458 89.2525 131.989 106.879 146.32 127.864V127.873Z" fill="#F4F0E0"/>
<path d="M126.814 206.938C117.245 213.038 108.249 221.815 100.041 232.849C91.9755 222.021 83.1585 213.342 73.7775 207.261C81.8695 193.181 90.8029 181.08 100.399 171.291C109.914 180.991 118.785 192.975 126.814 206.902C126.814 206.902 126.814 206.92 126.814 206.929V206.938Z" fill="#F4F0E0"/>
</svg>
