<svg width="18" height="20" viewBox="0 0 18 20" fill="none" xmlns="http://www.w3.org/2000/svg">
<path d="M10 9.2827L12.5 11.9812C12.6833 12.179 12.775 12.4309 12.775 12.7367C12.775 13.0426 12.6833 13.2944 12.5 13.4923C12.3167 13.6902 12.0833 13.7891 11.8 13.7891C11.5167 13.7891 11.2833 13.6902 11.1 13.4923L8.3 10.47C8.2 10.3621 8.125 10.2405 8.075 10.1052C8.025 9.97063 8 9.83139 8 9.68747V5.39692C8 5.09109 8.096 4.83456 8.288 4.62732C8.47933 4.4208 8.71667 4.31754 9 4.31754C9.28333 4.31754 9.521 4.4208 9.713 4.62732C9.90433 4.83456 10 5.09109 10 5.39692V9.2827ZM9 19.4289C6.98333 19.4289 5.175 18.7856 3.575 17.499C1.975 16.2131 0.9 14.5357 0.35 12.4669C0.266667 12.1431 0.296 11.8372 0.438 11.5494C0.579333 11.2616 0.8 11.0817 1.1 11.0097C1.38333 10.9378 1.63767 11.005 1.863 11.2116C2.08767 11.4188 2.24167 11.6753 2.325 11.9812C2.75833 13.5643 3.596 14.8415 4.838 15.813C6.07933 16.7844 7.46667 17.2701 9 17.2701C10.95 17.2701 12.604 16.5369 13.962 15.0704C15.3207 13.6046 16 11.8193 16 9.71445C16 7.60966 15.3207 5.824 13.962 4.35747C12.604 2.89167 10.95 2.15877 9 2.15877C7.85 2.15877 6.775 2.4466 5.775 3.02227C4.775 3.59795 3.93333 4.38949 3.25 5.39692H5C5.28333 5.39692 5.521 5.50018 5.713 5.7067C5.90433 5.91394 6 6.17048 6 6.4763C6 6.78213 5.90433 7.0383 5.713 7.24482C5.521 7.45207 5.28333 7.55569 5 7.55569H1C0.716667 7.55569 0.479333 7.45207 0.288 7.24482C0.0960001 7.0383 0 6.78213 0 6.4763V2.15877C0 1.85294 0.0960001 1.59641 0.288 1.38917C0.479333 1.18265 0.716667 1.07938 1 1.07938C1.28333 1.07938 1.521 1.18265 1.713 1.38917C1.90433 1.59641 2 1.85294 2 2.15877V3.61594C2.85 2.46459 3.88767 1.5741 5.113 0.944461C6.33767 0.31482 7.63333 0 9 0C10.25 0 11.421 0.256174 12.513 0.768521C13.6043 1.28159 14.5543 1.97419 15.363 2.84634C16.171 3.7192 16.8127 4.74461 17.288 5.92258C17.7627 7.10127 18 8.36522 18 9.71445C18 11.0637 17.7627 12.3273 17.288 13.5053C16.8127 14.6839 16.171 15.7094 15.363 16.5815C14.5543 17.4544 13.6043 18.1473 12.513 18.6604C11.421 19.1727 10.25 19.4289 9 19.4289Z" fill="#F9F4E8"/>
</svg>
