<svg width="22" height="20" viewBox="0 0 22 20" fill="none" xmlns="http://www.w3.org/2000/svg">
<path d="M8.04796 9.44516L16.1086 1.82022C16.3714 1.56332 16.6855 1.35851 17.0326 1.2177C17.3798 1.0769 17.7531 1.00293 18.1307 1.00009C18.5083 0.997244 18.8828 1.06559 19.2322 1.20116C19.5817 1.33672 19.8992 1.53678 20.1662 1.78969C20.4333 2.0426 20.6445 2.3433 20.7876 2.67429C20.9307 3.00527 21.0029 3.35992 20.9999 3.71758C20.9969 4.07524 20.9188 4.42876 20.7701 4.75755C20.6215 5.08634 20.4052 5.38383 20.134 5.63269L12.0833 13.2766M6.06026 12.3211C4.40218 12.3211 3.06373 13.5982 3.06373 15.1781C3.06373 16.4363 0.566617 16.616 1.06604 17.089C2.14479 18.1297 3.55316 19 5.06142 19C7.25888 19 9.0568 17.2972 9.0568 15.1781C9.05811 14.8041 8.98165 14.4336 8.83177 14.0876C8.68189 13.7417 8.46153 13.4271 8.18327 13.1618C7.90502 12.8965 7.57432 12.6857 7.21005 12.5414C6.84578 12.3972 6.45509 12.3223 6.06026 12.3211Z" stroke="#F9F4E8" stroke-width="2" stroke-linecap="round" stroke-linejoin="round"/>
</svg>
