<svg width="22" height="22" viewBox="0 0 22 22" fill="none" xmlns="http://www.w3.org/2000/svg">
<path d="M3.66663 16.4999H18.3333C18.8374 16.4999 19.2499 16.0874 19.2499 15.5832C19.2499 15.0791 18.8374 14.6666 18.3333 14.6666H3.66663C3.16247 14.6666 2.74997 15.0791 2.74997 15.5832C2.74997 16.0874 3.16247 16.4999 3.66663 16.4999ZM3.66663 11.9166H18.3333C18.8374 11.9166 19.2499 11.5041 19.2499 10.9999C19.2499 10.4958 18.8374 10.0833 18.3333 10.0833H3.66663C3.16247 10.0833 2.74997 10.4958 2.74997 10.9999C2.74997 11.5041 3.16247 11.9166 3.66663 11.9166ZM2.74997 6.4166C2.74997 6.92077 3.16247 7.33327 3.66663 7.33327H18.3333C18.8374 7.33327 19.2499 6.92077 19.2499 6.4166C19.2499 5.91244 18.8374 5.49994 18.3333 5.49994H3.66663C3.16247 5.49994 2.74997 5.91244 2.74997 6.4166Z" fill="#F9F4E8"/>
</svg>
