<svg width="14" height="25" viewBox="0 0 14 25" fill="none" xmlns="http://www.w3.org/2000/svg">
<path d="M6 21.25V11.25H1C0.666667 11.25 0.4 11.0833 0.2 10.75C-2.83122e-07 10.4167 -0.0499999 10.0417 0.0500001 9.625L2 1.75C2.13333 1.22917 2.375 0.807083 2.725 0.48375C3.075 0.16125 3.46667 0 3.9 0H10.1C10.5333 0 10.925 0.16125 11.275 0.48375C11.625 0.807083 11.8667 1.22917 12 1.75L13.95 9.625C14.05 10.0417 14 10.4167 13.8 10.75C13.6 11.0833 13.3333 11.25 13 11.25H8V21.25H6ZM2.35 8.75H11.65L10.1 2.5H3.9L2.35 8.75ZM3 25V22.5H11V25H3Z" fill="#F9F4E8"/>
</svg>
