<svg width="14" height="22" viewBox="0 0 14 22" fill="none" xmlns="http://www.w3.org/2000/svg">
<path d="M7 10.2541C6.33696 10.2541 5.70107 9.96985 5.23223 9.46379C4.76339 8.95773 4.5 8.27136 4.5 7.55569C4.5 6.84001 4.76339 6.15365 5.23223 5.64759C5.70107 5.14153 6.33696 4.85723 7 4.85723C7.66304 4.85723 8.29893 5.14153 8.76777 5.64759C9.23661 6.15365 9.5 6.84001 9.5 7.55569C9.5 7.91005 9.43534 8.26095 9.3097 8.58834C9.18406 8.91574 8.99991 9.21321 8.76777 9.46379C8.53562 9.71436 8.26002 9.91313 7.95671 10.0487C7.65339 10.1843 7.3283 10.2541 7 10.2541ZM7 0C5.14348 0 3.36301 0.796043 2.05025 2.21301C0.737498 3.62998 0 5.55179 0 7.55569C0 13.2225 7 21.5877 7 21.5877C7 21.5877 14 13.2225 14 7.55569C14 5.55179 13.2625 3.62998 11.9497 2.21301C10.637 0.796043 8.85652 0 7 0Z" fill="#F9F4E8"/>
</svg>
