<svg width="26" height="26" viewBox="0 0 26 26" fill="none" xmlns="http://www.w3.org/2000/svg">
<path d="M11.7656 16.8359L9.3605 19.241C8.85347 19.7481 8.04743 19.7481 7.5274 19.254C7.3844 19.111 7.24139 18.981 7.09838 18.838C5.75931 17.4859 4.55024 16.0689 3.47119 14.5868C2.40513 13.1047 1.54708 11.6226 0.92305 10.1535C0.312017 8.67147 0 7.25439 0 5.90232C0 5.01827 0.156008 4.17322 0.468025 3.39318C0.780042 2.60014 1.27407 1.8721 1.96311 1.22207C2.79515 0.403022 3.7052 0 4.66725 0C5.03127 0 5.39529 0.0780043 5.72031 0.234013C6.05833 0.390021 6.35734 0.624033 6.59135 0.962052L9.60752 5.21328C9.84153 5.5383 10.0105 5.83731 10.1275 6.12333C10.2446 6.39634 10.3096 6.66936 10.3096 6.91637C10.3096 7.22839 10.2185 7.5404 10.0365 7.83942C9.86753 8.13844 9.62052 8.45045 9.3085 8.76247L8.32045 9.78952C8.17744 9.93253 8.11244 10.1015 8.11244 10.3096C8.11244 10.4136 8.12544 10.5046 8.15144 10.6086C8.19044 10.7126 8.22944 10.7906 8.25544 10.8686C8.48946 11.2976 8.89248 11.8566 9.46451 12.5327C10.0495 13.2087 10.6736 13.8977 11.3496 14.5868C11.4796 14.7168 11.6226 14.8468 11.7526 14.9768C12.2727 15.4838 12.2857 16.3159 11.7656 16.8359Z" fill="#F9F4E8"/>
<path d="M25.9618 21.229C25.9618 21.593 25.8968 21.97 25.7668 22.334C25.7278 22.438 25.6888 22.542 25.6368 22.646C25.4158 23.1141 25.1298 23.5561 24.7527 23.9721C24.1157 24.6741 23.4137 25.1812 22.6206 25.5062C22.6076 25.5062 22.5946 25.5192 22.5816 25.5192C21.8146 25.8312 20.9825 26.0002 20.0855 26.0002C18.7594 26.0002 17.3423 25.6882 15.8473 25.0512C14.3522 24.4141 12.8571 23.5561 11.375 22.477C10.868 22.1 10.361 21.723 9.87995 21.32L14.1312 17.0687C14.4952 17.3418 14.8202 17.5498 15.0932 17.6928C15.1582 17.7188 15.2362 17.7578 15.3272 17.7968C15.4312 17.8358 15.5352 17.8488 15.6522 17.8488C15.8733 17.8488 16.0423 17.7708 16.1853 17.6278L17.1733 16.6527C17.4983 16.3277 17.8104 16.0807 18.1094 15.9247C18.4084 15.7427 18.7074 15.6517 19.0324 15.6517C19.2794 15.6517 19.5395 15.7037 19.8255 15.8207C20.1115 15.9377 20.4105 16.1067 20.7355 16.3277L25.0387 19.3829C25.3768 19.6169 25.6108 19.8899 25.7538 20.2149C25.8838 20.5399 25.9618 20.8649 25.9618 21.229Z" fill="#F9F4E8"/>
</svg>
