<svg width="18" height="18" viewBox="0 0 18 18" fill="none" xmlns="http://www.w3.org/2000/svg">
<path d="M6.84383 15.8249L0.525109 9.52493C0.450109 9.44993 0.397109 9.36868 0.36611 9.28118C0.33461 9.19368 0.31886 9.09993 0.31886 8.99993C0.31886 8.89993 0.33461 8.80618 0.36611 8.71868C0.397109 8.63118 0.450109 8.54993 0.525109 8.47493L6.84383 2.15621C7.01883 1.98121 7.23758 1.89371 7.50008 1.89371C7.76258 1.89371 7.98758 1.98746 8.17507 2.17496C8.36257 2.36246 8.45632 2.58121 8.45632 2.83121C8.45632 3.08121 8.36257 3.29996 8.17507 3.48746L2.6626 8.99993L8.17507 14.5124C8.35007 14.6874 8.43757 14.9029 8.43757 15.1589C8.43757 15.4154 8.34382 15.6374 8.15632 15.8249C7.96883 16.0124 7.75008 16.1062 7.50008 16.1062C7.25008 16.1062 7.03133 16.0124 6.84383 15.8249Z" fill="#CDCDCD"/>
</svg>
