<svg width="14" height="14" viewBox="0 0 14 14" fill="none" xmlns="http://www.w3.org/2000/svg">
<path d="M6.993 0C3.129 0 0 3.136 0 7C0 10.864 3.129 14 6.993 14C10.864 14 14 10.864 14 7C14 3.136 10.864 0 6.993 0ZM9.8 9.8C9.73524 9.86489 9.65832 9.91638 9.57364 9.9515C9.48896 9.98663 9.39818 10.0047 9.3065 10.0047C9.21482 10.0047 9.12404 9.98663 9.03936 9.9515C8.95468 9.91638 8.87776 9.86489 8.813 9.8L6.51 7.497C6.44386 7.43217 6.39124 7.35486 6.35519 7.26955C6.31914 7.18423 6.30038 7.09262 6.3 7V4.2C6.3 3.815 6.615 3.5 7 3.5C7.385 3.5 7.7 3.815 7.7 4.2V6.713L9.8 8.813C10.073 9.086 10.073 9.527 9.8 9.8Z" fill="#1E1E1E"/>
</svg>
