<svg width="15" height="15" viewBox="0 0 15 15" fill="none" xmlns="http://www.w3.org/2000/svg">
<path d="M7.5 7.1875C7.0856 7.1875 6.68817 7.02288 6.39515 6.72985C6.10212 6.43683 5.9375 6.0394 5.9375 5.625C5.9375 5.2106 6.10212 4.81317 6.39515 4.52015C6.68817 4.22712 7.0856 4.0625 7.5 4.0625C7.9144 4.0625 8.31183 4.22712 8.60485 4.52015C8.89788 4.81317 9.0625 5.2106 9.0625 5.625C9.0625 5.83019 9.02208 6.03337 8.94356 6.22294C8.86504 6.41251 8.74995 6.58476 8.60485 6.72985C8.45976 6.87495 8.28751 6.99004 8.09794 7.06856C7.90837 7.14708 7.70519 7.1875 7.5 7.1875ZM7.5 1.25C6.33968 1.25 5.22688 1.71094 4.40641 2.53141C3.58594 3.35188 3.125 4.46468 3.125 5.625C3.125 8.90625 7.5 13.75 7.5 13.75C7.5 13.75 11.875 8.90625 11.875 5.625C11.875 4.46468 11.4141 3.35188 10.5936 2.53141C9.77312 1.71094 8.66032 1.25 7.5 1.25Z" fill="#E0E0E0"/>
</svg>
