<svg width="23" height="20" viewBox="0 0 23 20" fill="none" xmlns="http://www.w3.org/2000/svg">
<path fill-rule="evenodd" clip-rule="evenodd" d="M17.7976 0H1.36905C1.00595 0 0.657731 0.164918 0.400985 0.458472C0.144238 0.752027 0 1.15017 0 1.56532C0 9.26357 4.19065 15.6532 9.58333 15.6532C14.976 15.6532 19.1667 9.26357 19.1667 1.56532C19.1667 1.15017 19.0224 0.752027 18.7657 0.458472C18.5089 0.164918 18.1607 0 17.7976 0ZM9.58333 12.5226C6.22232 12.5226 3.29119 8.49969 2.80792 3.13064H16.3588C15.8755 8.49969 12.9443 12.5226 9.58333 12.5226Z" fill="#F9F4E8"/>
<path d="M2.05362 16.0693H17.1131C17.4762 16.0693 17.8245 16.2342 18.0812 16.5278C18.338 16.8213 18.4822 17.2194 18.4822 17.6346C18.4822 18.0497 18.338 18.4479 18.0812 18.7414C17.8245 19.035 17.4762 19.1999 17.1131 19.1999H2.05362C1.69052 19.1999 1.3423 19.035 1.08556 18.7414C0.828809 18.4479 0.68457 18.0497 0.68457 17.6346C0.68457 17.2194 0.828809 16.8213 1.08556 16.5278C1.3423 16.2342 1.69052 16.0693 2.05362 16.0693ZM15.777 10.2932L16.5327 7.28313C16.8845 7.39897 17.2706 7.46001 17.6703 7.46001C19.1859 7.46001 20.262 6.61004 20.262 5.89469C20.262 5.17934 19.1859 4.32937 17.6703 4.32937V1.19873C20.5289 1.19873 23 3.15225 23 5.89469C23 8.63714 20.5289 10.5907 17.6703 10.5907C17.0173 10.5907 16.378 10.4889 15.777 10.2932Z" fill="#F9F4E8"/>
</svg>
