<svg width="26" height="26" viewBox="0 0 26 26" fill="none" xmlns="http://www.w3.org/2000/svg">
<path d="M13 2.4375C10.9109 2.4375 8.86879 3.05698 7.13179 4.2176C5.3948 5.37822 4.04098 7.02786 3.24153 8.95791C2.44208 10.888 2.2329 13.0117 2.64046 15.0606C3.04802 17.1096 4.054 18.9916 5.53119 20.4688C7.00838 21.946 8.89044 22.952 10.9394 23.3595C12.9883 23.7671 15.1121 23.5579 17.0421 22.7585C18.9721 21.959 20.6218 20.6052 21.7824 18.8682C22.943 17.1312 23.5625 15.0891 23.5625 13C23.5595 10.1996 22.4458 7.51466 20.4656 5.53445C18.4853 3.55424 15.8004 2.44046 13 2.4375ZM18.2386 8.3068L14.9886 14.8068C14.9488 14.8851 14.8851 14.9488 14.8068 14.9886L8.3068 18.2386C8.23049 18.2769 8.14404 18.2902 8.05973 18.2767C7.97543 18.2631 7.89754 18.2232 7.83716 18.1628C7.77677 18.1025 7.73695 18.0246 7.72335 17.9403C7.70976 17.856 7.72307 17.7695 7.76141 17.6932L11.0114 11.1932C11.0512 11.1149 11.1149 11.0512 11.1932 11.0114L17.6932 7.76141C17.7695 7.72307 17.856 7.70975 17.9403 7.72335C18.0246 7.73695 18.1025 7.77677 18.1629 7.83715C18.2232 7.89754 18.2631 7.97542 18.2767 8.05973C18.2903 8.14404 18.2769 8.23049 18.2386 8.3068Z" fill="#F9F4E8"/>
</svg>
