<svg width="62" height="62" viewBox="0 0 62 62" fill="none" xmlns="http://www.w3.org/2000/svg">
<path d="M31 0C13.9068 0 0 13.9068 0 31C0 48.0932 13.9068 62 31 62C48.0932 62 62 48.0932 62 31C62 13.9068 48.0932 0 31 0ZM23.5153 17.4107C25.4036 15.4091 28.061 14.3077 31 14.3077C33.939 14.3077 36.5725 15.4165 38.4683 17.4286C40.3894 19.4674 41.3239 22.2067 41.1033 25.1517C40.6622 31 36.1314 35.7692 31 35.7692C25.8686 35.7692 21.3289 31 20.8967 25.1502C20.6776 22.1814 21.6106 19.4331 23.5153 17.4107ZM31 57.2308C27.4983 57.2331 24.0318 56.5322 20.806 55.1697C17.5802 53.8072 14.6609 51.8108 12.2212 49.2989C13.6185 47.3062 15.3989 45.612 17.4584 44.3151C21.2574 41.8798 26.0653 40.5385 31 40.5385C35.9347 40.5385 40.7426 41.8798 44.5372 44.3151C46.5984 45.6114 48.3803 47.3057 49.7788 49.2989C47.3393 51.8111 44.42 53.8077 41.1942 55.1702C37.9684 56.5327 34.5018 57.2334 31 57.2308Z" fill="#F9F4E8"/>
</svg>
