<svg width="20" height="19" viewBox="0 0 20 19" fill="none" xmlns="http://www.w3.org/2000/svg">
<path d="M13 1L19 3.125V8.4375H16V16.9375C16 17.2193 15.8946 17.4895 15.7071 17.6888C15.5196 17.8881 15.2652 18 15 18H5C4.73478 18 4.48043 17.8881 4.29289 17.6888C4.10536 17.4895 4 17.2193 4 16.9375V8.4375H1V3.125L7 1C7 1.84538 7.31607 2.65613 7.87868 3.2539C8.44129 3.85167 9.20435 4.1875 10 4.1875C10.7956 4.1875 11.5587 3.85167 12.1213 3.2539C12.6839 2.65613 13 1.84538 13 1Z" stroke="#F9F4E8" stroke-width="2" stroke-linecap="round" stroke-linejoin="round"/>
</svg>
